<svg xmlns="http://www.w3.org/2000/svg" width="1600" height="820" viewBox="0 0 1600 820" role="img" aria-label="Dify workflow canvas generated by chat2dify">
  <defs>
    <pattern id="grid" width="18" height="18" patternUnits="userSpaceOnUse">
      <circle cx="1" cy="1" r="1" fill="#e8edf5"/>
    </pattern>
    <filter id="shadow" x="-10%" y="-20%" width="120%" height="140%">
      <feDropShadow dx="0" dy="6" stdDeviation="8" flood-color="#94a3b8" flood-opacity=".18"/>
    </filter>
    <marker id="arrow" viewBox="0 0 10 10" refX="9" refY="5" markerWidth="7" markerHeight="7" orient="auto-start-reverse">
      <path d="M0 0 10 5 0 10z" fill="#c7d2e5"/>
    </marker>
  </defs>
  <rect width="1600" height="820" fill="#f7faff"/>
  <rect y="48" width="1600" height="772" fill="url(#grid)"/>
  <rect width="1600" height="48" fill="#ffffff"/>
  <text x="16" y="31" font-family="Inter, Arial, sans-serif" font-size="22" font-weight="700" fill="#101828">Dify</text>
  <text x="78" y="30" font-family="Inter, Arial, sans-serif" font-size="14" fill="#344054">garden's Workspace</text>
  <text x="690" y="30" font-family="Inter, Arial, sans-serif" font-size="15" font-weight="700" fill="#155eef">工作室 / 修车售后服务工作流V2</text>
  <rect x="1278" y="18" width="80" height="30" rx="8" fill="#ffffff" stroke="#d0d7e2"/>
  <text x="1298" y="38" font-family="Inter, Arial, sans-serif" font-size="13" font-weight="700" fill="#155eef">测试运行</text>
  <rect x="1514" y="18" width="56" height="30" rx="8" fill="#155eef"/>
  <text x="1530" y="38" font-family="Inter, Arial, sans-serif" font-size="13" font-weight="700" fill="#ffffff">发布</text>
  <rect x="0" y="48" width="178" height="772" fill="#ffffff"/>
  <rect x="14" y="70" width="32" height="32" rx="8" fill="#e9f1ff" stroke="#c9d9ff"/>
  <text x="12" y="112" font-family="Inter, Arial, sans-serif" font-size="14" font-weight="700" fill="#1d2939">修车售后服务工作流V2</text>
  <text x="12" y="134" font-family="Inter, Arial, sans-serif" font-size="12" fill="#667085">工作流</text>
  <rect x="10" y="174" width="158" height="28" rx="7" fill="#eaf1ff"/>
  <text x="32" y="193" font-family="Inter, Arial, sans-serif" font-size="13" font-weight="700" fill="#155eef">编辑</text>
  <text x="190" y="78" font-family="Inter, Arial, sans-serif" font-size="13" fill="#667085">自动保存 15:47:13 · 未发布</text>

  <g fill="none" stroke="#c7d2e5" stroke-width="2" marker-end="url(#arrow)">
    <path d="M438 374 C475 374 486 374 520 374"/>
    <path d="M666 374 C710 374 720 374 758 374"/>
    <path d="M926 294 C1000 292 1040 130 1240 118"/>
    <path d="M926 390 C1030 392 1054 248 1210 244"/>
    <path d="M926 472 C1030 472 1048 360 1210 360"/>
    <path d="M926 556 C1040 552 1090 510 1325 500"/>
    <path d="M1016 228 C1100 228 1120 130 1240 118"/>
    <path d="M1118 338 C1180 338 1195 248 1210 244"/>
    <path d="M1118 450 C1190 450 1202 360 1210 360"/>
    <path d="M1118 560 C1248 560 1255 500 1325 500"/>
  </g>

  <g filter="url(#shadow)">
    <rect x="296" y="342" width="142" height="62" rx="10" fill="#ffffff" stroke="#d8e0ec"/>
    <text x="310" y="365" font-family="Inter, Arial, sans-serif" font-size="13" font-weight="700" fill="#101828">接收修车售后诉求</text>
    <rect x="310" y="376" width="92" height="18" rx="5" fill="#f2f4f7"/>
    <text x="320" y="389" font-family="Inter, Arial, sans-serif" font-size="11" fill="#344054">query · 必填</text>

    <rect x="520" y="342" width="142" height="62" rx="10" fill="#ffffff" stroke="#d8e0ec"/>
    <text x="535" y="365" font-family="Inter, Arial, sans-serif" font-size="13" font-weight="700" fill="#101828">提取车辆售后信息</text>
    <rect x="535" y="376" width="96" height="18" rx="5" fill="#edf2ff"/>
    <text x="546" y="389" font-family="Inter, Arial, sans-serif" font-size="11" fill="#344054">qwen3.5-plus</text>

    <rect x="758" y="300" width="168" height="300" rx="10" fill="#ffffff" stroke="#d8e0ec"/>
    <text x="776" y="324" font-family="Inter, Arial, sans-serif" font-size="13" font-weight="700" fill="#101828">识别售后类型</text>
    <text x="776" y="351" font-family="Inter, Arial, sans-serif" font-size="11" font-weight="700" fill="#667085">CASE 1</text>
    <text x="776" y="376" font-family="Inter, Arial, sans-serif" font-size="11" fill="#344054">投诉 · 包含投诉/不满意/维权</text>
    <text x="776" y="432" font-family="Inter, Arial, sans-serif" font-size="11" font-weight="700" fill="#667085">CASE 2</text>
    <text x="776" y="456" font-family="Inter, Arial, sans-serif" font-size="11" fill="#344054">咨询 · 包含怎么处理/价格</text>
    <text x="776" y="512" font-family="Inter, Arial, sans-serif" font-size="11" font-weight="700" fill="#667085">CASE 3</text>
    <text x="776" y="536" font-family="Inter, Arial, sans-serif" font-size="11" fill="#344054">预约 · 包含预约/改期/到店</text>
    <text x="894" y="584" font-family="Inter, Arial, sans-serif" font-size="11" font-weight="700" fill="#667085">ELSE</text>

    <rect x="1016" y="214" width="144" height="62" rx="10" fill="#ffffff" stroke="#d8e0ec"/>
    <text x="1032" y="237" font-family="Inter, Arial, sans-serif" font-size="13" font-weight="700" fill="#101828">生成投诉处理回复</text>
    <rect x="1032" y="248" width="96" height="18" rx="5" fill="#edf2ff"/>
    <text x="1042" y="261" font-family="Inter, Arial, sans-serif" font-size="11" fill="#344054">qwen3.5-plus</text>

    <rect x="1040" y="326" width="144" height="62" rx="10" fill="#ffffff" stroke="#d8e0ec"/>
    <text x="1056" y="349" font-family="Inter, Arial, sans-serif" font-size="13" font-weight="700" fill="#101828">生成咨询解答回复</text>
    <rect x="1056" y="360" width="96" height="18" rx="5" fill="#edf2ff"/>
    <text x="1066" y="373" font-family="Inter, Arial, sans-serif" font-size="11" fill="#344054">qwen3.5-plus</text>

    <rect x="1040" y="438" width="144" height="62" rx="10" fill="#ffffff" stroke="#d8e0ec"/>
    <text x="1056" y="461" font-family="Inter, Arial, sans-serif" font-size="13" font-weight="700" fill="#101828">生成预约改期回复</text>
    <rect x="1056" y="472" width="96" height="18" rx="5" fill="#edf2ff"/>
    <text x="1066" y="485" font-family="Inter, Arial, sans-serif" font-size="11" fill="#344054">qwen3.5-plus</text>

    <rect x="1040" y="550" width="144" height="62" rx="10" fill="#ffffff" stroke="#d8e0ec"/>
    <text x="1056" y="573" font-family="Inter, Arial, sans-serif" font-size="13" font-weight="700" fill="#101828">生成其他售后回复</text>
    <rect x="1056" y="584" width="96" height="18" rx="5" fill="#edf2ff"/>
    <text x="1066" y="597" font-family="Inter, Arial, sans-serif" font-size="11" fill="#344054">qwen3.5-plus</text>

    <rect x="1240" y="96" width="140" height="56" rx="10" fill="#ffffff" stroke="#d8e0ec"/>
    <text x="1256" y="119" font-family="Inter, Arial, sans-serif" font-size="13" font-weight="700" fill="#101828">返回投诉处理结果</text>
    <text x="1256" y="140" font-family="Inter, Arial, sans-serif" font-size="11" fill="#667085">answer · textString</text>

    <rect x="1210" y="222" width="140" height="56" rx="10" fill="#ffffff" stroke="#d8e0ec"/>
    <text x="1226" y="245" font-family="Inter, Arial, sans-serif" font-size="13" font-weight="700" fill="#101828">返回咨询处理结果</text>
    <text x="1226" y="266" font-family="Inter, Arial, sans-serif" font-size="11" fill="#667085">answer · textString</text>

    <rect x="1210" y="338" width="140" height="56" rx="10" fill="#ffffff" stroke="#d8e0ec"/>
    <text x="1226" y="361" font-family="Inter, Arial, sans-serif" font-size="13" font-weight="700" fill="#101828">返回预约处理结果</text>
    <text x="1226" y="382" font-family="Inter, Arial, sans-serif" font-size="11" fill="#667085">answer · textString</text>

    <rect x="1325" y="478" width="140" height="56" rx="10" fill="#ffffff" stroke="#d8e0ec"/>
    <text x="1341" y="501" font-family="Inter, Arial, sans-serif" font-size="13" font-weight="700" fill="#101828">返回其他售后结果</text>
    <text x="1341" y="522" font-family="Inter, Arial, sans-serif" font-size="11" fill="#667085">answer · textString</text>
  </g>
</svg>
