<svg xmlns="http://www.w3.org/2000/svg" width="1600" height="820" viewBox="0 0 1600 820" role="img" aria-label="chat2dify Web UI workbench showing create, modify, run draft, and outputs">
  <defs>
    <filter id="cardShadow" x="-8%" y="-12%" width="116%" height="132%">
      <feDropShadow dx="0" dy="10" stdDeviation="14" flood-color="#94a3b8" flood-opacity=".18"/>
    </filter>
  </defs>
  <rect width="1600" height="820" fill="#f6f8fb"/>
  <rect width="1600" height="76" fill="#ffffff"/>
  <line x1="0" y1="76" x2="1600" y2="76" stroke="#dbe3ee"/>
  <text x="24" y="38" font-family="Inter, Arial, sans-serif" font-size="25" font-weight="800" fill="#17202a">chat2dify</text>
  <text x="24" y="60" font-family="Inter, Arial, sans-serif" font-size="13" fill="#52627a">Workflow console for the local Dify sidecar</text>
  <rect x="1254" y="24" width="70" height="30" rx="6" fill="#eef3f8" stroke="#cbd5e1"/>
  <text x="1272" y="43" font-family="Inter, Arial, sans-serif" font-size="12" font-weight="700" fill="#17202a">Refresh</text>
  <rect x="1334" y="29" width="236" height="22" rx="11" fill="#dff6ea"/>
  <text x="1346" y="44" font-family="Inter, Arial, sans-serif" font-size="12" font-weight="800" fill="#177245">Healthy · DSL 0.6.0 · 1.14.2-145-g332d1ea533</text>

  <g filter="url(#cardShadow)" font-family="Inter, Arial, sans-serif">
    <rect x="16" y="92" width="382" height="302" rx="7" fill="#ffffff" stroke="#cbd5e1"/>
    <text x="30" y="122" font-size="16" font-weight="800" fill="#17202a">Create</text>
    <rect x="315" y="107" width="68" height="22" rx="11" fill="#dff6ea"/>
    <text x="326" y="122" font-size="12" font-weight="800" fill="#177245">completed</text>
    <text x="30" y="151" font-size="12" font-weight="800" fill="#66758c">App name</text>
    <rect x="30" y="160" width="354" height="32" rx="5" fill="#f9fbfd" stroke="#cbd5e1"/>
    <text x="42" y="181" font-size="12" font-weight="700" fill="#17202a">修车售后服务工作流V2</text>
    <text x="30" y="214" font-size="12" font-weight="800" fill="#66758c">Request</text>
    <rect x="30" y="224" width="354" height="126" rx="5" fill="#f9fbfd" stroke="#cbd5e1"/>
    <text x="42" y="248" font-size="12" font-weight="700" fill="#17202a">system_prompt 定义“修车门店售后服务专员”的身份、服务规则、</text>
    <text x="42" y="268" font-size="12" font-weight="700" fill="#17202a">输出格式、审核标准；user_prompt 只放本次用户输入、提取字段</text>
    <text x="42" y="288" font-size="12" font-weight="700" fill="#17202a">和 Dify 变量引用。最终返回 answer。</text>
    <text x="42" y="322" font-size="12" font-weight="700" fill="#17202a">节点标题必须使用中文业务名称，例如“接收修车售后诉求”</text>
    <rect x="30" y="360" width="354" height="30" rx="5" fill="#2f6fdd"/>
    <text x="166" y="380" font-size="12" font-weight="800" fill="#ffffff">Create workflow</text>

    <rect x="412" y="92" width="382" height="370" rx="7" fill="#ffffff" stroke="#cbd5e1"/>
    <text x="426" y="122" font-size="16" font-weight="800" fill="#17202a">Modify Draft</text>
    <text x="426" y="151" font-size="12" font-weight="800" fill="#66758c">App ID</text>
    <rect x="426" y="160" width="354" height="32" rx="5" fill="#f9fbfd" stroke="#cbd5e1"/>
    <text x="438" y="181" font-size="12" font-weight="700" fill="#17202a">c51bc729-2386-4c0e-9c52-0b9015335011</text>
    <text x="426" y="214" font-size="12" font-weight="800" fill="#66758c">Expected hash</text>
    <rect x="426" y="224" width="354" height="32" rx="5" fill="#f9fbfd" stroke="#cbd5e1"/>
    <text x="438" y="245" font-size="12" font-weight="700" fill="#66758c">Optional</text>
    <text x="426" y="280" font-size="12" font-weight="800" fill="#66758c">Change request</text>
    <rect x="426" y="290" width="354" height="100" rx="5" fill="#f9fbfd" stroke="#cbd5e1"/>
    <text x="438" y="314" font-size="12" font-weight="700" fill="#17202a">Make the final answer warmer and more concise.</text>
    <rect x="426" y="420" width="112" height="30" rx="5" fill="#edf2f7" stroke="#cbd5e1"/>
    <text x="456" y="440" font-size="12" font-weight="800" fill="#17202a">Load draft</text>
    <rect x="548" y="420" width="112" height="30" rx="5" fill="#2f6fdd"/>
    <text x="586" y="440" font-size="12" font-weight="800" fill="#ffffff">Preview</text>
    <rect x="670" y="420" width="112" height="30" rx="5" fill="#2f6fdd"/>
    <text x="712" y="440" font-size="12" font-weight="800" fill="#ffffff">Apply</text>

    <rect x="808" y="92" width="382" height="386" rx="7" fill="#ffffff" stroke="#cbd5e1"/>
    <text x="822" y="122" font-size="16" font-weight="800" fill="#17202a">Run Draft</text>
    <rect x="1108" y="107" width="72" height="22" rx="11" fill="#dff6ea"/>
    <text x="1121" y="122" font-size="12" font-weight="800" fill="#177245">succeeded</text>
    <text x="822" y="151" font-size="12" font-weight="800" fill="#66758c">App ID</text>
    <rect x="822" y="160" width="354" height="32" rx="5" fill="#f9fbfd" stroke="#cbd5e1"/>
    <text x="834" y="181" font-size="12" font-weight="700" fill="#17202a">c51bc729-2386-4c0e-9c52-0b9015335011</text>
    <text x="822" y="214" font-size="12" font-weight="800" fill="#66758c">Inputs JSON</text>
    <rect x="822" y="224" width="354" height="110" rx="5" fill="#f9fbfd" stroke="#cbd5e1"/>
    <text x="836" y="250" font-size="12" font-weight="700" fill="#17202a">{</text>
    <text x="856" y="272" font-size="12" font-weight="700" fill="#17202a">"query": "我上周在城西门店做了保养，回来后发动机异响更严重了，</text>
    <text x="856" y="292" font-size="12" font-weight="700" fill="#17202a">车型是本田雅阁，工单号 WX20260529001，希望门店给我一个说法。"</text>
    <text x="836" y="314" font-size="12" font-weight="700" fill="#17202a">}</text>
    <rect x="822" y="348" width="172" height="30" rx="5" fill="#edf2f7" stroke="#cbd5e1"/>
    <text x="872" y="368" font-size="12" font-weight="800" fill="#17202a">Format JSON</text>
    <rect x="1004" y="348" width="172" height="30" rx="5" fill="#edf2f7" stroke="#cbd5e1"/>
    <text x="1056" y="368" font-size="12" font-weight="800" fill="#17202a">Reset JSON</text>
    <text x="822" y="404" font-size="12" font-weight="800" fill="#66758c">Timeout seconds</text>
    <rect x="822" y="414" width="354" height="32" rx="5" fill="#f9fbfd" stroke="#cbd5e1"/>
    <text x="834" y="435" font-size="12" font-weight="800" fill="#17202a">120</text>
    <rect x="822" y="456" width="354" height="30" rx="5" fill="#2f6fdd"/>
    <text x="976" y="476" font-size="12" font-weight="800" fill="#ffffff">Run draft</text>

    <rect x="1204" y="92" width="382" height="346" rx="7" fill="#ffffff" stroke="#cbd5e1"/>
    <text x="1218" y="126" font-size="16" font-weight="800" fill="#17202a">Recent Apps</text>
    <rect x="1524" y="106" width="48" height="30" rx="5" fill="#edf2f7" stroke="#cbd5e1"/>
    <text x="1535" y="126" font-size="12" font-weight="800" fill="#17202a">Clear</text>
    <rect x="1218" y="150" width="354" height="96" rx="5" fill="#f9fbfd" stroke="#cbd5e1"/>
    <text x="1230" y="170" font-size="12" font-weight="800" fill="#17202a">修车售后服务工作流V2</text>
    <text x="1230" y="190" font-size="12" font-weight="700" fill="#5f6f87">c51bc729-2386-4c0e-9c52-0b9015335011</text>
    <text x="1230" y="210" font-size="12" font-weight="700" fill="#5f6f87">run draft · succeeded · 2026/5/29 15:47:58</text>
    <text x="1230" y="230" font-size="12" font-weight="700" fill="#5f6f87">"我上周在城西门店做了保养..."</text>
    <rect x="1218" y="258" width="354" height="84" rx="5" fill="#f9fbfd" stroke="#cbd5e1"/>
    <text x="1268" y="280" font-size="12" font-weight="800" fill="#17202a">瑞幸咖啡售后服务</text>
    <text x="1268" y="300" font-size="12" font-weight="700" fill="#5f6f87">2286d67d-1722-4648-b5a4-2581cc04d29b</text>
    <text x="1268" y="320" font-size="12" font-weight="700" fill="#5f6f87">modify preview · hash saved</text>
  </g>

  <g filter="url(#cardShadow)" font-family="Inter, Arial, sans-serif">
    <rect x="16" y="492" width="1570" height="314" rx="7" fill="#ffffff" stroke="#cbd5e1"/>
    <text x="30" y="526" font-size="16" font-weight="800" fill="#17202a">Result</text>
    <rect x="1064" y="512" width="104" height="30" rx="5" fill="#edf2f7" stroke="#cbd5e1"/>
    <text x="1084" y="532" font-size="12" font-weight="800" fill="#17202a">Open workflow</text>
    <rect x="1176" y="512" width="88" height="30" rx="5" fill="#edf2f7" stroke="#cbd5e1"/>
    <text x="1198" y="532" font-size="12" font-weight="800" fill="#17202a">Copy app ID</text>
    <rect x="30" y="552" width="380" height="58" rx="5" fill="#f9fbfd" stroke="#cbd5e1"/>
    <text x="42" y="572" font-size="11" font-weight="800" fill="#66758c">APP ID</text>
    <text x="42" y="592" font-size="12" fill="#17202a">c51bc729-2386-4c0e-9c52-0b9015335011</text>
    <rect x="418" y="552" width="380" height="58" rx="5" fill="#f9fbfd" stroke="#cbd5e1"/>
    <text x="430" y="572" font-size="11" font-weight="800" fill="#66758c">WORKFLOW</text>
    <text x="430" y="592" font-size="12" font-weight="800" fill="#155eef">http://127.0.0.1/app/c51bc729.../workflow</text>
    <rect x="806" y="552" width="380" height="58" rx="5" fill="#f9fbfd" stroke="#cbd5e1"/>
    <text x="818" y="572" font-size="11" font-weight="800" fill="#66758c">STATUS</text>
    <text x="818" y="592" font-size="12" fill="#17202a">succeeded</text>
    <rect x="1194" y="552" width="380" height="58" rx="5" fill="#f9fbfd" stroke="#cbd5e1"/>
    <text x="1206" y="572" font-size="11" font-weight="800" fill="#66758c">RUN OK</text>
    <text x="1206" y="592" font-size="12" fill="#17202a">true</text>
    <rect x="30" y="620" width="380" height="48" rx="5" fill="#f9fbfd" stroke="#cbd5e1"/>
    <text x="42" y="640" font-size="11" font-weight="800" fill="#66758c">RUN ID</text>
    <text x="42" y="658" font-size="12" fill="#17202a">0046746e-3a87-40e3-97c4-9cbf89b4d7b5</text>
    <rect x="418" y="620" width="380" height="48" rx="5" fill="#f9fbfd" stroke="#cbd5e1"/>
    <text x="430" y="640" font-size="11" font-weight="800" fill="#66758c">TASK ID</text>
    <text x="430" y="658" font-size="12" fill="#17202a">65d2e6ed-73c1-4472-b9f8-4f28f3d90c24</text>
    <rect x="806" y="620" width="380" height="48" rx="5" fill="#f9fbfd" stroke="#cbd5e1"/>
    <text x="818" y="640" font-size="11" font-weight="800" fill="#66758c">TOKENS</text>
    <text x="818" y="658" font-size="12" fill="#17202a">672</text>
    <rect x="1194" y="620" width="380" height="48" rx="5" fill="#f9fbfd" stroke="#cbd5e1"/>
    <text x="1206" y="640" font-size="11" font-weight="800" fill="#66758c">STEPS</text>
    <text x="1206" y="658" font-size="12" fill="#17202a">5</text>
    <rect x="30" y="680" width="70" height="26" rx="5" fill="#eef3f8" stroke="#cbd5e1"/>
    <text x="46" y="698" font-size="12" font-weight="800" fill="#66758c">Changes</text>
    <rect x="106" y="680" width="84" height="26" rx="5" fill="#eef3f8" stroke="#cbd5e1"/>
    <text x="124" y="698" font-size="12" font-weight="800" fill="#66758c">Validation</text>
    <rect x="196" y="680" width="64" height="26" rx="5" fill="#eaf1ff" stroke="#9bc2ff"/>
    <text x="216" y="698" font-size="12" font-weight="800" fill="#155eef">Outputs</text>
    <text x="30" y="730" font-size="11" font-weight="800" fill="#66758c">OUTPUTS</text>
    <rect x="30" y="742" width="1544" height="50" rx="5" fill="#0f1720"/>
    <text x="44" y="773" font-size="12" fill="#f8fafc">{"answer":"您好，已收到您关于本田雅阁在城西门店保养后出现发动机异响加剧的反馈，我们非常理解您的担心..."}</text>
  </g>
</svg>
